<?xml version="1.0" standalone="no"?>
<svg version="1.0" xmlns="http://www.w3.org/2000/svg"
 width="2000.000000pt" height="2000.000000pt" viewBox="0 0 2000.000000 2000.000000"
 preserveAspectRatio="xMidYMid meet">

<rect width="2000" height="2000" rx="300" fill="#0e0e0e"/>

<g transform="translate(0.000000,2000.000000) scale(0.100000,-0.100000)"
fill="#f0ede8" stroke="none">
<path d="M6165 12972 c105 -6 206 -14 225 -17 19 -3 100 -10 180 -15 154
-11 391 -41 535 -69 33 -7 85 -17 115 -22 30 -6 73 -15 95 -21 22 -6 60 -15
85 -19 25 -4 74 -15 110 -24 36 -9 79 -18 95 -21 17 -3 39 -9 50 -14 11 -5 47
-16 80 -25 33 -9 78 -23 100 -30 22 -7 67 -21 100 -30 33 -10 78 -26 100 -35
51 -23 139 -50 160 -50 8 0 23 -4 33 -10 9 -5 35 -17 57 -26 60 -25 313 -151
370 -184 28 -16 59 -34 70 -39 12 -5 27 -16 34 -25 7 -8 36 -26 64 -39 80 -37
211 -139 361 -282 157 -149 218 -221 276 -325 23 -40 50 -82 60 -92 19 -21 89
-160 115 -228 10 -25 23 -58 30 -75 7 -16 18 -48 25 -70 7 -22 17 -51 22 -65
10 -25 13 -41 45 -215 9 -49 17 -144 17 -210 l1 -120 -1220 0 -1220 0 -5 40
c-12 87 -105 215 -185 255 -17 8 -41 22 -55 31 -61 39 -200 107 -255 123 -33
10 -64 22 -69 27 -6 5 -18 9 -28 9 -10 0 -47 10 -81 22 -34 11 -82 24 -107 28
-25 5 -72 13 -105 20 -344 68 -461 75 -1275 75 -612 0 -1000 -12 -1031 -30 -6
-4 -45 -11 -87 -16 -112 -12 -191 -25 -242 -39 -196 -52 -192 -51 -305 -101
-27 -12 -103 -65 -115 -80 -3 -3 -23 -27 -44 -53 -48 -56 -66 -103 -66 -173 0
-87 35 -156 104 -206 66 -47 87 -58 156 -81 30 -11 64 -22 75 -27 35 -14 144
-37 280 -58 39 -6 95 -16 126 -21 30 -6 82 -10 115 -10 33 0 87 -5 120 -11
102 -19 429 -28 1369 -38 501 -6 1025 -15 1165 -21 140 -6 300 -10 354 -10 55
0 136 -4 180 -10 45 -5 144 -15 221 -21 239 -19 335 -28 470 -44 220 -26 275
-34 286 -40 5 -4 34 -11 62 -15 118 -20 171 -31 188 -40 10 -6 29 -10 43 -10
14 0 35 -4 48 -9 13 -5 46 -16 73 -24 123 -35 261 -81 270 -89 5 -4 15 -8 23
-8 7 0 50 -17 95 -38 45 -22 100 -45 122 -52 22 -7 47 -16 55 -21 8 -4 39 -21
68 -36 74 -39 294 -216 372 -299 47 -51 79 -98 117 -174 73 -147 103 -216 103
-234 0 -8 5 -18 10 -21 6 -3 10 -19 10 -35 0 -16 5 -41 11 -57 14 -37 30 -163
36 -293 5 -98 -2 -182 -28 -340 -6 -36 -13 -81 -16 -100 -2 -19 -8 -44 -13
-55 -4 -11 -16 -45 -26 -75 -9 -30 -23 -69 -31 -87 -7 -17 -13 -34 -13 -37 0
-4 -15 -39 -34 -79 -18 -40 -37 -83 -41 -97 -4 -14 -11 -27 -15 -30 -3 -3 -43
-54 -87 -115 -71 -96 -126 -155 -248 -265 -65 -58 -252 -187 -315 -216 -8 -4
-27 -16 -43 -26 -48 -34 -141 -78 -164 -78 -12 0 -24 -4 -28 -9 -3 -5 -20 -13
-37 -17 -18 -3 -39 -10 -48 -14 -19 -10 -76 -35 -110 -48 -73 -29 -113 -42
-195 -67 -49 -15 -108 -33 -130 -40 -22 -7 -58 -17 -80 -23 -22 -5 -60 -15
-85 -22 -25 -6 -65 -15 -90 -20 -25 -4 -76 -16 -115 -25 -38 -10 -95 -21 -127
-25 -31 -4 -61 -10 -66 -14 -10 -6 -120 -18 -319 -35 -56 -5 -108 -13 -114
-17 -12 -7 -50 -11 -329 -33 -74 -6 -142 -14 -150 -17 -8 -4 -94 -10 -190 -15
-96 -5 -263 -13 -370 -18 -257 -13 -1205 -13 -1440 0 -442 24 -637 40 -751 59
-30 6 -75 10 -100 10 -24 0 -60 5 -79 10 -33 10 -81 16 -315 40 -53 5 -100 12
-107 16 -6 4 -38 10 -72 15 -33 4 -90 15 -126 24 -36 9 -85 21 -110 25 -61 12
-154 35 -220 55 -30 9 -68 19 -85 21 -16 3 -39 9 -50 13 -11 5 -47 16 -80 26
-33 10 -89 28 -125 41 -36 13 -70 24 -77 24 -6 0 -24 7 -39 15 -16 8 -36 15
-45 15 -8 0 -19 4 -25 8 -5 5 -38 17 -74 26 -109 30 -389 161 -538 251 -41 25
-77 45 -82 45 -4 0 -12 6 -19 13 -6 8 -37 26 -68 42 -61 31 -238 161 -313 231
-25 24 -63 57 -85 76 -52 44 -149 151 -215 238 -19 25 -37 47 -40 50 -11 10
-128 187 -143 217 -9 17 -27 62 -41 99 -13 38 -36 103 -51 144 -15 41 -31 93
-36 115 -4 22 -12 60 -17 85 -24 108 -33 190 -30 255 l3 70 1278 3 1277 2 35
-54 c19 -30 35 -59 35 -64 0 -24 175 -146 280 -194 102 -47 149 -67 185 -78
86 -28 122 -38 165 -50 25 -6 61 -16 80 -22 37 -12 88 -23 185 -39 33 -5 76
-14 95 -19 19 -5 52 -10 73 -10 21 0 57 -4 80 -10 43 -10 225 -25 467 -40 74
-5 191 -13 260 -19 158 -13 1091 -13 1270 0 74 5 198 14 275 19 176 11 331 26
415 41 73 12 170 39 184 51 6 4 20 8 32 8 13 0 26 5 29 10 3 6 25 19 49 30 89
40 186 152 186 215 0 12 5 36 11 54 12 35 -2 132 -27 181 -29 59 -176 148
-269 163 -16 3 -64 14 -105 25 -146 39 -233 52 -465 72 -66 5 -127 13 -135 16
-44 18 -888 43 -2025 60 -684 9 -1083 19 -1210 29 -104 8 -242 19 -306 23 -63
5 -120 12 -126 15 -6 4 -58 12 -115 18 -212 21 -244 26 -257 34 -8 4 -41 11
-75 15 -162 20 -242 33 -258 41 -9 5 -27 9 -40 9 -12 0 -40 6 -63 14 -22 8
-60 19 -85 26 -66 18 -241 77 -295 100 -11 5 -36 15 -55 23 -81 34 -157 71
-194 94 -21 14 -72 43 -114 64 -129 68 -209 140 -376 338 -63 75 -158 270
-173 356 -3 17 -10 35 -15 41 -27 35 -32 553 -6 659 5 22 13 60 18 85 12 67
54 189 96 277 45 95 161 283 185 300 10 7 28 30 40 50 72 117 332 329 547 445
31 17 86 47 122 66 72 40 113 60 180 90 42 18 70 28 160 54 19 6 49 16 65 23
46 18 96 36 135 46 69 20 95 27 125 38 17 5 57 17 90 26 33 9 70 21 83 26 13
5 34 9 48 9 14 0 33 4 43 10 10 5 43 14 72 19 30 5 86 17 124 26 73 17 144 29
257 45 38 5 73 12 80 16 6 4 44 11 82 15 141 15 252 30 294 39 23 6 79 10 125
10 45 0 154 7 242 15 88 8 212 15 275 16 63 1 142 5 175 9 88 11 1368 5 1590
-8z
M15860 12972 c107 -6 211 -14 231 -17 19 -3 98 -10 175 -15 76 -5 189 -16 249
-25 61 -9 137 -20 170 -24 33 -4 69 -11 80 -14 11 -4 49 -11 85 -16 36 -6 97
-18 135 -27 39 -9 90 -20 115 -24 25 -5 74 -16 110 -25 36 -9 80 -19 98 -22
18 -3 35 -9 38 -14 3 -5 14 -9 24 -9 11 0 41 -7 67 -15 26 -8 71 -22 98 -30
81 -24 138 -42 170 -55 58 -24 70 -28 122 -44 28 -9 59 -16 68 -16 8 0 23 -4
33 -10 9 -5 58 -28 107 -51 189 -87 282 -134 340 -174 87 -57 93 -61 162 -96
35 -17 68 -38 74 -45 6 -8 15 -14 20 -14 11 0 36 -21 173 -145 169 -152 279
-266 304 -315 13 -25 50 -83 82 -130 55 -79 140 -236 140 -260 0 -6 4 -18 9
-28 5 -9 17 -37 26 -62 10 -25 24 -59 31 -77 8 -17 14 -37 14 -44 0 -7 4 -26
9 -43 31 -101 41 -183 43 -341 l3 -170 -1215 0 c-1207 0 -1215 0 -1218 20 -3
20 -12 40 -52 127 -25 55 -91 122 -153 157 -23 13 -73 41 -110 62 -38 22 -72
39 -75 39 -4 0 -29 11 -57 25 -27 13 -57 25 -65 25 -8 0 -28 7 -44 15 -15 8
-35 15 -43 15 -9 0 -36 7 -62 15 -25 7 -64 18 -86 24 -22 5 -60 15 -85 21 -50
14 -125 26 -247 39 -45 5 -87 12 -94 16 -30 19 -378 29 -989 30 -645 0 -959
-10 -1055 -34 -22 -6 -57 -11 -77 -11 -21 0 -57 -4 -80 -9 -24 -6 -79 -17
-123 -26 -103 -21 -187 -45 -200 -56 -5 -5 -17 -9 -26 -9 -10 0 -39 -11 -65
-25 -26 -14 -51 -25 -56 -25 -23 0 -145 -103 -159 -135 -5 -11 -13 -27 -17
-35 -27 -48 -32 -66 -32 -125 0 -125 68 -214 206 -270 30 -12 57 -25 61 -29 3
-3 18 -6 33 -6 15 0 30 -3 34 -7 10 -10 90 -32 156 -42 30 -5 87 -14 125 -20
39 -6 95 -16 126 -21 30 -6 82 -10 115 -10 32 0 88 -5 124 -11 108 -18 416
-28 1265 -38 1326 -16 1963 -37 2128 -71 26 -6 75 -10 108 -10 33 0 90 -5 127
-10 37 -6 110 -15 162 -20 140 -15 219 -26 275 -40 74 -18 112 -26 200 -45
148 -31 401 -109 521 -161 156 -67 198 -84 214 -84 10 0 23 -7 30 -15 7 -8 17
-15 22 -15 16 0 144 -88 233 -159 87 -69 215 -191 215 -203 0 -5 23 -44 50
-88 28 -44 50 -82 50 -85 0 -2 16 -37 36 -77 36 -72 41 -87 70 -203 64 -255
44 -649 -47 -905 -107 -305 -241 -500 -480 -701 -64 -53 -166 -129 -174 -129
-4 0 -21 -10 -38 -23 -43 -30 -65 -43 -107 -64 -19 -9 -45 -25 -58 -34 -30
-23 -93 -51 -162 -73 -30 -10 -64 -21 -75 -26 -120 -49 -231 -91 -280 -105
-33 -10 -68 -21 -77 -26 -10 -5 -25 -9 -33 -9 -9 0 -50 -11 -93 -24 -80 -25
-149 -43 -217 -56 -22 -5 -71 -16 -110 -25 -38 -10 -95 -21 -127 -25 -31 -4
-61 -11 -67 -14 -6 -4 -55 -11 -109 -16 -53 -5 -144 -14 -202 -20 -58 -5 -121
-14 -140 -20 -19 -5 -59 -10 -89 -10 -30 0 -80 -4 -110 -10 -31 -5 -114 -15
-186 -21 -127 -11 -223 -17 -645 -38 -256 -13 -1206 -13 -1440 0 -96 5 -245
13 -331 17 -85 5 -160 12 -166 15 -6 4 -65 12 -130 17 -194 15 -313 29 -324
36 -6 3 -50 10 -97 15 -247 24 -282 28 -292 34 -6 4 -39 11 -73 16 -34 5 -91
16 -127 24 -36 9 -85 20 -110 24 -41 8 -68 14 -185 43 -22 6 -58 16 -80 24
-23 8 -48 14 -58 14 -9 0 -25 4 -35 9 -9 6 -44 18 -77 27 -77 22 -222 69 -260
84 -61 25 -71 29 -119 44 -27 9 -55 16 -62 16 -42 0 -419 191 -574 290 -8 6
-24 14 -35 20 -93 45 -181 108 -341 245 -103 88 -201 178 -218 201 -17 23 -62
82 -101 132 -110 144 -172 234 -194 287 -5 11 -18 41 -29 65 -19 42 -29 75
-68 210 -9 30 -20 69 -25 86 -5 17 -9 43 -9 58 0 16 -7 55 -15 87 -10 38 -15
92 -13 147 l3 87 1260 3 c693 1 1270 0 1282 -3 14 -3 29 -22 43 -53 12 -26 35
-62 53 -80 78 -82 335 -222 482 -263 17 -4 53 -15 80 -23 159 -47 206 -58 320
-76 33 -6 73 -15 89 -20 16 -6 49 -10 73 -10 24 0 63 -4 86 -10 43 -10 222
-25 467 -40 74 -5 196 -13 270 -19 177 -13 1064 -13 1250 0 80 6 206 14 280
19 412 27 532 50 721 139 53 25 118 92 150 154 41 80 52 202 24 261 -43 90
-194 196 -279 196 -18 0 -36 3 -40 7 -4 5 -31 14 -59 21 -51 13 -76 18 -222
42 -38 6 -95 15 -126 21 -30 5 -75 9 -100 9 -24 0 -93 7 -154 15 -60 8 -157
15 -215 15 -58 0 -143 4 -190 9 -83 10 -759 23 -2010 42 -366 5 -704 15 -815
23 -104 8 -247 19 -317 25 -70 5 -132 12 -137 16 -6 3 -52 10 -103 16 -182 18
-259 29 -271 36 -7 4 -37 10 -67 14 -146 18 -237 32 -252 40 -9 5 -27 9 -40 9
-12 0 -40 6 -63 14 -22 8 -60 19 -85 26 -104 28 -204 62 -295 100 -136 57
-263 118 -300 145 -16 11 -48 29 -70 40 -77 35 -218 149 -280 225 -162 201
-199 265 -252 435 -53 169 -65 260 -60 440 5 183 21 293 62 426 8 26 15 56 15
67 0 12 4 23 9 27 5 3 12 19 16 35 9 39 88 194 155 300 92 147 168 232 335
375 39 33 72 63 75 66 3 3 20 14 39 23 18 10 54 33 80 51 25 18 82 52 126 75
44 23 87 48 95 54 33 28 253 123 370 160 30 10 64 21 75 25 58 23 93 34 118
38 15 3 30 9 33 14 3 5 16 9 30 9 14 0 35 5 47 12 12 6 35 15 52 19 16 4 57
15 90 24 33 9 78 20 100 25 22 5 69 16 105 25 36 9 88 20 117 25 28 4 56 11
62 14 6 4 41 11 78 17 101 15 161 24 228 37 33 6 114 18 180 27 66 8 145 20
176 25 30 6 93 10 140 10 46 0 122 5 169 10 47 6 192 14 324 20 131 5 241 12
244 15 10 10 1326 -2 1532 -13z"/>
</g>
</svg>
